<?xml version="1.0" encoding="UTF-8"?><svg id="Layer_2" xmlns="http://www.w3.org/2000/svg" viewBox="0 0 136.55 155"><g id="Layer_1-2"><rect x="72.76" y=".5" width="10.7" height="154" style="fill:#f4a79f; stroke:#f7f7eb; stroke-miterlimit:10;"/><polygon points="136.05 53.5 20.14 53.5 .64 30.21 20.14 5.26 136.05 5.26 136.05 53.5" style="fill:#f4a79f; stroke:#f7f7eb; stroke-miterlimit:10;"/><path d="M49.48,23.95c-.36.48-.74.85-1.14,1.09-.4.24-.84.36-1.31.36-.55,0-1.03-.12-1.43-.37-.4-.25-.73-.59-.99-1.03-.26-.44-.45-.96-.58-1.57-.12-.61-.19-1.28-.19-2.01,0-.69.07-1.34.2-1.93.13-.6.33-1.11.6-1.55s.6-.78.99-1.03c.4-.25.86-.37,1.39-.37.48,0,.91.12,1.29.36.38.24.76.61,1.13,1.11l-.81,1.26c-.25-.38-.49-.67-.74-.86-.24-.19-.52-.29-.84-.29-.59,0-1.04.28-1.34.84-.3.56-.45,1.38-.45,2.47,0,.47.03.91.09,1.33s.16.77.3,1.08c.14.31.32.55.55.73s.51.27.84.27.63-.09.9-.28c.27-.19.54-.48.82-.86l.72,1.27Z" style="fill:#fff;"/><path d="M56.26,20.46c0,.79-.07,1.49-.22,2.11-.15.61-.35,1.13-.63,1.55s-.61.74-1,.96-.85.33-1.35.33-.96-.11-1.36-.33-.74-.54-1.01-.96c-.28-.42-.49-.94-.63-1.55-.14-.61-.22-1.32-.22-2.11s.07-1.47.21-2.08c.14-.61.35-1.13.63-1.55.28-.42.61-.74,1.01-.96s.85-.33,1.36-.33.97.11,1.36.33c.4.22.73.54,1,.96.27.42.48.94.62,1.55.14.61.21,1.31.21,2.08ZM54.85,20.46c0-.5-.03-.96-.08-1.38-.06-.42-.15-.78-.29-1.07s-.32-.53-.55-.7c-.23-.17-.53-.25-.88-.25s-.65.08-.88.25-.41.4-.55.7c-.14.3-.23.66-.29,1.07-.06.42-.08.88-.08,1.38s.03.97.08,1.39c.06.42.15.78.29,1.08.14.3.32.53.55.7s.53.25.88.25.64-.08.87-.25c.23-.17.42-.4.55-.7.14-.3.23-.66.29-1.08s.08-.88.08-1.38Z" style="fill:#fff;"/><path d="M62.61,21.37c0,.64-.05,1.21-.14,1.71s-.25.92-.46,1.27c-.21.34-.49.61-.83.79-.34.18-.76.27-1.26.27s-.92-.09-1.26-.27c-.34-.18-.62-.44-.83-.79-.21-.34-.36-.77-.46-1.27s-.14-1.07-.14-1.71v-5.68h1.35v5.49c0,.37.01.72.04,1.04s.08.6.18.84c.09.24.23.43.41.56.18.14.42.21.72.21s.54-.07.71-.21c.18-.14.31-.33.4-.57.09-.24.15-.52.18-.84.03-.32.04-.66.04-1.03v-5.49h1.35v5.68Z" style="fill:#fff;"/><path d="M67.6,25.24l-.9-3.32c-.04-.15-.09-.25-.13-.31-.05-.06-.13-.09-.24-.09h-1.1v3.72h-1.35v-9.49c.37-.06.75-.11,1.14-.13.38-.02.77-.03,1.15-.03.35,0,.69.04,1.01.12s.61.23.86.45c.25.22.45.51.6.88.15.37.23.84.23,1.41,0,.62-.09,1.15-.27,1.58s-.47.77-.88.99v.02c.07.03.12.11.17.24.04.13.08.24.1.33l1.05,3.62h-1.43ZM67.49,18.57c0-.29-.03-.54-.09-.73-.06-.19-.15-.35-.26-.46-.11-.11-.25-.19-.41-.24-.16-.04-.35-.07-.55-.07-.17,0-.33,0-.49.01-.15,0-.31.02-.47.04v2.92h1.09c.18,0,.35-.02.5-.07.15-.04.27-.12.37-.23.1-.11.18-.26.23-.45.06-.19.08-.43.08-.73Z" style="fill:#fff;"/><path d="M74.39,22.46c0,.52-.06.97-.19,1.34-.13.37-.3.67-.53.9-.22.23-.48.4-.78.51-.3.11-.62.16-.95.16-.25,0-.48-.02-.71-.06s-.44-.1-.65-.19c-.21-.08-.41-.19-.6-.32-.2-.13-.39-.28-.59-.45l.55-1.44c.29.29.59.53.91.72.32.19.65.29,1.01.29.14,0,.29-.02.43-.06.14-.04.27-.11.38-.22.11-.1.2-.23.27-.4.07-.16.1-.37.1-.62,0-.22-.04-.41-.12-.57-.08-.16-.19-.3-.32-.42-.14-.12-.29-.23-.47-.32-.18-.09-.37-.18-.56-.27-.23-.11-.47-.24-.7-.39-.23-.14-.44-.32-.63-.54s-.34-.48-.46-.79c-.12-.32-.18-.7-.18-1.16s.07-.88.2-1.21c.13-.33.31-.6.53-.81.22-.21.47-.36.75-.45.28-.09.57-.14.86-.14.41,0,.78.07,1.14.21s.7.34,1.05.6l-.44,1.49c-.25-.24-.51-.44-.77-.58-.26-.15-.55-.22-.87-.22-.15,0-.29.02-.42.05s-.25.09-.35.18c-.1.08-.18.19-.24.33-.06.14-.09.3-.09.5s.04.38.12.52c.08.14.19.26.32.37.14.11.29.2.47.29.17.09.36.17.55.26.23.11.47.23.7.37.24.14.45.32.64.54s.34.49.46.81.18.72.18,1.2Z" style="fill:#fff;"/><path d="M49.48,41.77c-.36.48-.74.85-1.14,1.09-.4.24-.84.36-1.31.36-.55,0-1.03-.12-1.43-.37-.4-.25-.73-.59-.99-1.03-.26-.44-.45-.96-.58-1.57-.12-.61-.19-1.28-.19-2.01,0-.69.07-1.34.2-1.93.13-.6.33-1.11.6-1.55s.6-.78.99-1.03c.4-.25.86-.37,1.39-.37.48,0,.91.12,1.29.36.38.24.76.61,1.13,1.11l-.81,1.26c-.25-.38-.49-.67-.74-.86-.24-.19-.52-.29-.84-.29-.59,0-1.04.28-1.34.84-.3.56-.45,1.38-.45,2.47,0,.47.03.91.09,1.33s.16.77.3,1.08c.14.31.32.55.55.73s.51.27.84.27.63-.09.9-.28c.27-.19.54-.48.82-.86l.72,1.27Z" style="fill:#fff;"/><path d="M54.07,43.06v-4.17h-2.6v4.17h-1.35v-9.55h1.35v3.64h2.6v-3.64h1.35v9.55h-1.35Z" style="fill:#fff;"/><path d="M60.97,43.06l-.55-2.1h-2.57l-.53,2.1h-1.41l2.46-9.59h1.52l2.51,9.59h-1.44ZM59.14,35.26h-.03l-.97,4.17h1.98l-.97-4.17Z" style="fill:#fff;"/><path d="M66.58,43.06l-.9-3.32c-.04-.15-.09-.25-.13-.31-.05-.06-.13-.09-.24-.09h-1.1v3.72h-1.35v-9.49c.37-.06.75-.11,1.14-.13.38-.02.77-.03,1.15-.03.35,0,.69.04,1.01.12s.61.23.86.45c.25.22.45.51.6.88.15.37.23.84.23,1.41,0,.62-.09,1.15-.27,1.58s-.47.77-.88.99v.02c.07.03.12.11.17.24.04.13.08.24.1.33l1.05,3.62h-1.43ZM66.48,36.39c0-.29-.03-.54-.09-.73-.06-.19-.15-.35-.26-.46-.11-.11-.25-.19-.41-.24-.16-.04-.35-.07-.55-.07-.17,0-.33,0-.49.01-.15,0-.31.02-.47.04v2.92h1.09c.18,0,.35-.02.5-.07.15-.04.27-.12.37-.23.1-.11.18-.26.23-.45.06-.19.08-.43.08-.73Z" style="fill:#fff;"/><path d="M68.93,43.06v-9.55h1.35v7.98h2.71v1.58h-4.05Z" style="fill:#fff;"/><path d="M73.69,43.06v-9.55h4.31v1.58h-2.96v2.26h2.68v1.58h-2.68v2.6h3.06v1.54h-4.4Z" style="fill:#fff;"/><path d="M83.96,43.06v-6.47h-.03l-1.8,3.94h-.04l-1.79-3.92h-.03v6.45h-1.33v-9.55h1.33l1.83,4.09h.04l1.82-4.09h1.32v9.55h-1.32Z" style="fill:#fff;"/><path d="M90.83,43.06l-.55-2.1h-2.57l-.53,2.1h-1.41l2.46-9.59h1.52l2.51,9.59h-1.44ZM89.01,35.26h-.03l-.97,4.17h1.98l-.97-4.17Z" style="fill:#fff;"/><path d="M98.31,38.81c0,.68-.05,1.29-.16,1.84-.1.54-.27,1.01-.49,1.39-.23.38-.52.68-.87.88-.36.2-.79.31-1.29.31s-.93-.11-1.32-.34c-.39-.23-.72-.56-.99-.98-.27-.42-.48-.94-.63-1.55-.15-.61-.22-1.29-.22-2.05s.07-1.44.22-2.05c.15-.61.36-1.13.64-1.56.28-.43.61-.76,1-.99.39-.23.83-.34,1.32-.34.28,0,.53.04.76.11.23.07.44.17.63.3.19.13.37.27.52.44s.31.34.45.52l-.78,1.25c-.25-.34-.49-.6-.74-.78-.24-.18-.51-.26-.8-.26-.34,0-.63.09-.85.26-.23.18-.41.42-.56.72s-.24.66-.3,1.07c-.06.41-.09.84-.09,1.31s.03.91.08,1.33c.06.42.15.79.29,1.11.14.32.32.57.55.76.23.19.52.28.87.28.54,0,.93-.22,1.17-.65s.36-1.04.36-1.8h-1.55v-1.54h2.79v1.03Z" style="fill:#fff;"/><path d="M103.69,43.06l-3.06-6.33h-.02v6.33h-1.32v-9.55h1.29l3.04,6.32h.02v-6.32h1.33v9.55h-1.28Z" style="fill:#fff;"/><path d="M106.24,43.06v-9.55h4.31v1.58h-2.96v2.26h2.68v1.58h-2.68v2.6h3.06v1.54h-4.4Z" style="fill:#fff;"/></g></svg>