<?xml version="1.0" encoding="UTF-8"?><svg id="Layer_2" xmlns="http://www.w3.org/2000/svg" viewBox="0 0 433.18 410.05"><g id="tv"><path d="M99.26.5h271.38c4.29,0,8.3,2.33,10.74,6.24l48.97,78.32c2.87,4.59,3.11,10.61.6,15.46l-57.58,111.47c-2.26,4.38-6.41,7.13-10.95,7.28l-282.92,9.33c-4.69.15-9.09-2.48-11.53-6.92L3.08,104.25c-3.62-6.55-2-15.1,3.69-19.48L87.37,3.09c2.19-1.69,9.22-2.59,11.88-2.59Z" style="fill:#f7f7eb; stroke:#6bd696; stroke-miterlimit:10;"/><polygon points="432.65 381.64 209.55 409.55 .5 383.28 .5 104.23 432.65 104.23 432.65 381.64" style="fill:#f7f7eb; stroke:#6bd696; stroke-miterlimit:10;"/></g></svg>